HIERARCHY
ROOT Hips
{
  OFFSET -35.4901 99.2528 17.4586
  CHANNELS 6 Xposition Yposition Zposition Zrotation Xrotation Yrotation
  JOINT LeftUpLeg
  {
    OFFSET 8.64259 1.95398 -2.38835
    CHANNELS 3 Zrotation Xrotation Yrotation
    JOINT LeftLeg
    {
      OFFSET 43.7702 0 0
      CHANNELS 3 Zrotation Xrotation Yrotation
      JOINT LeftFoot
      {
        OFFSET 40.6238 0 0
        CHANNELS 3 Zrotation Xrotation Yrotation
        JOINT LeftToeBase
        {
          OFFSET 12.7242 0 0
          CHANNELS 3 Zrotation Xrotation Yrotation
          End Site
          {
            OFFSET 0 0 0
          }
        }
      }
    }
  }
  JOINT RightUpLeg
  {
    OFFSET -8.2249 1.95398 -2.59336
    CHANNELS 3 Zrotation Xrotation Yrotation
    JOINT RightLeg
    {
      OFFSET 43.5653 0 0
      CHANNELS 3 Zrotation Xrotation Yrotation
      JOINT RightFoot
      {
        OFFSET 40.6238 0 0
        CHANNELS 3 Zrotation Xrotation Yrotation
        JOINT RightToeBase
        {
          OFFSET 12.7242 0 0
          CHANNELS 3 Zrotation Xrotation Yrotation
          End Site
          {
            OFFSET 0 0 0
          }
        }
      }
    }
  }
  JOINT Spine
  {
    OFFSET 0.165834 0.87714 6.61349
    CHANNELS 3 Zrotation Xrotation Yrotation
    JOINT Spine1
    {
      OFFSET 7.38963 1.71661e-005 0
      CHANNELS 3 Zrotation Xrotation Yrotation
      JOINT Spine2
      {
        OFFSET 11.9445 1.14441e-005 0
        CHANNELS 3 Zrotation Xrotation Yrotation
        JOINT Spine3
        {
          OFFSET 14.7254 4.19617e-005 0
          CHANNELS 3 Zrotation Xrotation Yrotation
          JOINT Spine4
          {
            OFFSET 10.9679 0 0
            CHANNELS 3 Zrotation Xrotation Yrotation
            JOINT RightShoulder
            {
              OFFSET 2.46616 -1.6653 3.69651
              CHANNELS 3 Zrotation Xrotation Yrotation
              JOINT RightArm
              {
                OFFSET 13.0012 0 0
                CHANNELS 3 Zrotation Xrotation Yrotation
                JOINT RightForeArm
                {
                  OFFSET 28.7848 1.52588e-005 0
                  CHANNELS 3 Zrotation Xrotation Yrotation
                  JOINT RightHand
                  {
                    OFFSET 26.5688 1.52588e-005 0
                    CHANNELS 3 Zrotation Xrotation Yrotation
                    End Site
                    {
                      OFFSET 0 0 0
                    }
                  }
                }
              }
            }
            JOINT LeftShoulder
            {
              OFFSET 2.38034 -1.29275 -3.7523
              CHANNELS 3 Zrotation Xrotation Yrotation
              JOINT LeftArm
              {
                OFFSET 16.3182 6.10351e-005 0
                CHANNELS 3 Zrotation Xrotation Yrotation
                JOINT LeftForeArm
                {
                  OFFSET 27.0901 0 0
                  CHANNELS 3 Zrotation Xrotation Yrotation
                  JOINT LeftHand
                  {
                    OFFSET 24.5451 1.52588e-005 0
                    CHANNELS 3 Zrotation Xrotation Yrotation
                    End Site
                    {
                      OFFSET 0 0 0
                    }
                  }
                }
              }
            }
            JOINT Neck
            {
              OFFSET 5.0226 -0.0266342 0
              CHANNELS 3 Zrotation Xrotation Yrotation
              JOINT Head
              {
                OFFSET 6.69364 2.86102e-005 0
                CHANNELS 3 Zrotation Xrotation Yrotation
                End Site
                {
                  OFFSET 0 0 0
                }
              }
            }
          }
        }
      }
    }
  }
}
MOTION
Frames:	6
Frame Time:	0.0416667
71.3767 98.6206 -41.4309 102.133 45.2213 84.3768 -176.535 -2.44603 88.7364 -26.3666 12.8476 -0.381789 81.5129 8.54947 -2.32072 6.08085 -2.44312 4.32269 179.35 15.9822 92.3734 -27.2226 -12.6855 -3.57177 67.7346 -5.26206 -2.93488 19.0972 -1.09076 3.48876 -0.361411 8.12072 -90.3629 10.6296 -0.886582 -0.640905 -1.04113 -0.913953 -0.601261 -23.5765 -0.653002 -0.877724 -3.56384 -0.652997 -0.87772 87.9644 -31.704 -110.038 23.1856 -3.25118 -20.4454 12.2792 4.59489 -49.2776 -14.8949 2.09859 -19.0883 -85.9698 -46.5442 84.2514 -29.4284 9.67359 -25.7161 -22.5774 -24.5972 -52.9922 8.92098 -0.0855816 -4.31994 -2.06658 1.43893 -11.5168 -4.37875 2.72988 4.83569 
74.7505 98.282 -44.5257 102.39 47.2912 83.8892 -175.538 -6.23778 89.8727 -24.717 16.3369 -0.591928 83.7028 9.78511 -2.15719 8.16267 -3.85545 5.93952 178.217 15.0507 93.2859 -12.7548 -15.3483 -2.55249 64.8273 -3.86239 -2.77336 20.4289 -1.21698 3.69933 -0.585385 8.18629 -90.3146 10.4985 -1.31039 -0.508543 -1.17181 -1.3315 -0.450367 -23.7102 -1.09698 -0.878886 -3.69753 -1.09697 -0.878888 88.2836 -31.9209 -109.338 23.437 -2.14898 -19.9635 11.5978 4.68674 -49.9884 -14.9963 1.91106 -17.6736 -86.1254 -46.0341 83.9252 -29.4452 10.7594 -27.3221 -20.8193 -23.5903 -52.7327 0.818733 -0.268882 -9.82081 -1.51096 1.16145 -13.0777 -4.09303 2.71658 4.96326 
78.3713 97.4506 -48.086 102.726 47.8287 83.8349 -174.131 -10.4088 91.501 -23.2843 18.2395 -1.14908 86.0789 10.9197 -1.97868 7.14794 -3.14882 5.1071 176.463 16.6015 95.4718 -7.65501 -11.4162 -0.823826 64.8907 -2.71967 -0.856441 23.9097 -0.662521 2.20666 -0.650453 8.24555 -90.2959 10.3801 -1.43128 -0.4628 -1.29008 -1.45027 -0.39936 -23.8295 -1.22601 -0.871607 -3.81686 -1.22602 -0.871617 88.4007 -32.1274 -109.032 23.7102 -1.44644 -19.8474 12.1975 5.20602 -50.3242 -13.3907 1.74167 -17.5452 -86.1178 -46.1734 83.9597 -29.4873 10.4688 -28.4484 -20.4315 -23.4136 -52.2527 2.82449 -0.255327 -8.1938 -1.70552 1.08501 -14.1452 -3.46367 2.77241 5.50045 
82.2951 96.1175 -51.9732 103.016 47.6576 83.914 -172.949 -14.5688 92.7696 -22.9942 17.7891 -1.54372 89.1346 11.8245 -3.09968 8.79651 -3.46848 5.51254 176.496 17.8232 97.4666 -7.58778 -7.1379 0.54164 66.5462 -3.29108 -0.999752 25.7004 -0.387514 1.39551 -0.664699 8.27356 -90.3276 10.3237 -1.47411 -0.523075 -1.34652 -1.4957 -0.45768 -23.886 -1.24876 -0.94197 -3.87337 -1.24876 -0.941974 88.3126 -32.3953 -109.092 23.0996 -1.25964 -19.7592 12.6894 5.34253 -50.577 -15.8052 1.63337 -15.0322 -86.2103 -46.378 83.8474 -29.8493 10.2638 -28.7447 -20.1922 -23.3363 -52.1192 3.42351 -0.232937 -7.1733 -1.65794 1.14763 -13.8202 -3.4096 2.80158 5.54479 
85.9766 95.1214 -56.6697 102.508 49.6496 83.7576 -172.5 -18.2914 93.0118 -21.9345 21.2655 -1.10158 87.6891 12.3768 0.386089 13.906 -2.211 3.97327 176.346 17.3248 97.2526 -8.27851 -8.12369 0.926284 62.8771 -2.27142 -1.00838 23.3394 -0.68843 2.33032 -0.903802 8.18871 -90.3181 10.4933 -1.94617 -0.459247 -1.1762 -1.96452 -0.373121 -23.7203 -1.71818 -1.02307 -3.70766 -1.71816 -1.02307 88.939 -32.3774 -107.907 23.3888 -1.43185 -20.3047 12.1416 4.8204 -50.7478 -12.7149 1.81916 -18.8632 -86.2514 -46.0883 83.7355 -30.4246 10.3122 -28.6494 -20.1686 -23.2676 -52.1616 2.96436 -0.203277 -6.78844 -0.525242 1.05779 -13.0323 -4.17996 2.71155 5.13149 
89.8278 94.6836 -61.2117 102.128 51.484 83.5892 -172.564 -20.9573 93.2789 -22.0367 20.5025 0.34565 83.8883 10.5146 -0.892979 22.8144 1.60318 -1.96394 176.244 22.5773 97.2925 -21.3824 -10.5491 0.276847 61.1319 -0.324824 -2.33223 20.3228 -1.00838 3.25394 -1.07317 8.08042 -90.3327 10.7098 -2.29044 -0.451427 -0.959127 -2.30808 -0.350145 -23.5073 -2.04882 -1.11919 -3.49462 -2.04884 -1.11919 88.9753 -32.6761 -107.724 23.9212 -0.933645 -19.6407 10.7748 2.52011 -50.973 -12.8218 1.71809 -18.488 -86.2725 -46.7579 83.8111 -30.1531 10.719 -28.3382 -21.4116 -24.2474 -52.7438 0.512415 -0.120353 -5.4395 0.0487956 0.899838 -11.7299 -4.57949 2.44199 4.06053 
